<svg width="953" height="88" viewBox="0 0 953 88" fill="none" xmlns="http://www.w3.org/2000/svg">
<line x1="2.5" y1="75.5" x2="950.5" y2="75.5" stroke="#2E2836" stroke-width="5" stroke-linecap="round"/>
<circle cx="111" cy="76" r="12" fill="#6A2E35"/>
<circle cx="357" cy="76" r="12" fill="#2E2836"/>
<circle cx="598" cy="76" r="12" fill="#2E2836"/>
<circle cx="843" cy="76" r="12" fill="#2E2836"/>
<path d="M69.3923 19.24C68.2989 19.24 67.2989 18.9733 66.3923 18.44C65.4856 17.8933 64.7589 17.0867 64.2123 16.02C63.6656 14.94 63.3923 13.6133 63.3923 12.04C63.3923 10.4933 63.6589 9.17333 64.1923 8.08C64.7256 6.98667 65.4789 6.14667 66.4523 5.56C67.4256 4.97333 68.5656 4.68 69.8723 4.68C70.5656 4.68 71.2789 4.76667 72.0123 4.94C72.7456 5.11333 73.5323 5.37333 74.3723 5.72L74.1923 9.32H72.4923L72.0123 6.98L72.4923 7.44C72.0256 7.25333 71.5789 7.11333 71.1523 7.02C70.7256 6.92667 70.3323 6.88 69.9723 6.88C69.2123 6.88 68.5723 7.07333 68.0523 7.46C67.5323 7.83333 67.1389 8.38 66.8723 9.1C66.6056 9.82 66.4723 10.68 66.4723 11.68C66.4723 12.8533 66.6256 13.8333 66.9323 14.62C67.2523 15.3933 67.6856 15.9733 68.2323 16.36C68.7923 16.7333 69.4189 16.92 70.1123 16.92C70.6323 16.92 71.1789 16.8133 71.7523 16.6C72.3389 16.3733 72.9256 16.0333 73.5123 15.58L74.5723 17.24C73.7456 17.9067 72.8856 18.4067 71.9923 18.74C71.1123 19.0733 70.2456 19.24 69.3923 19.24ZM79.4588 19.24C78.5655 19.24 77.8188 18.9533 77.2188 18.38C76.6188 17.7933 76.3188 16.9133 76.3188 15.74V9.9L76.5788 10.3L74.9988 9.82V8.38L79.1188 8.24V15.28C79.1188 15.9067 79.2588 16.3733 79.5388 16.68C79.8188 16.9733 80.1922 17.12 80.6588 17.12C81.0188 17.12 81.4122 17.0267 81.8388 16.84C82.2788 16.64 82.7122 16.3333 83.1388 15.92L82.9388 16.42V9.84L83.1988 10.3L81.6188 9.82V8.38L85.7388 8.24V17.52L85.3988 17.04L87.0788 17.56V18.98L83.5588 19.14L83.1788 17.18L83.5788 17.32C82.9122 17.96 82.2188 18.44 81.4988 18.76C80.7922 19.08 80.1122 19.24 79.4588 19.24ZM91.076 11.02C91.076 11.3267 91.2093 11.5733 91.476 11.76C91.7427 11.9467 92.0827 12.1067 92.496 12.24C92.9227 12.3733 93.3693 12.5133 93.836 12.66C94.316 12.8067 94.7627 13 95.176 13.24C95.6027 13.4667 95.9493 13.7733 96.216 14.16C96.4827 14.5467 96.616 15.0467 96.616 15.66C96.616 16.4467 96.4027 17.1067 95.976 17.64C95.5493 18.1733 94.9693 18.5733 94.236 18.84C93.5027 19.1067 92.676 19.24 91.756 19.24C91.2227 19.24 90.656 19.1933 90.056 19.1C89.4693 19.0067 88.8627 18.88 88.236 18.72L88.356 15.7H90.116L90.336 17.46L90.096 17.12C90.3627 17.2 90.656 17.2667 90.976 17.32C91.296 17.36 91.576 17.38 91.816 17.38C92.1627 17.38 92.4827 17.3333 92.776 17.24C93.0827 17.1467 93.3293 17.0133 93.516 16.84C93.716 16.6533 93.816 16.42 93.816 16.14C93.816 15.82 93.6827 15.5667 93.416 15.38C93.1493 15.1933 92.8027 15.0333 92.376 14.9C91.9627 14.7667 91.5227 14.6267 91.056 14.48C90.6027 14.3333 90.1627 14.14 89.736 13.9C89.3227 13.66 88.9827 13.34 88.716 12.94C88.4493 12.54 88.316 12.02 88.316 11.38C88.316 10.6067 88.5093 9.98 88.896 9.5C89.2827 9.00667 89.796 8.64667 90.436 8.42C91.0893 8.19333 91.8027 8.08 92.576 8.08C93.1227 8.08 93.7027 8.13333 94.316 8.24C94.9293 8.33333 95.556 8.47333 96.196 8.66L96.096 11.34H94.316L93.996 9.76L94.376 10.18C93.7493 10.0067 93.196 9.92 92.716 9.92C92.2227 9.92 91.8227 10.02 91.516 10.22C91.2227 10.4067 91.076 10.6733 91.076 11.02ZM101.759 19.24C100.839 19.24 100.139 18.9667 99.6593 18.42C99.1926 17.86 98.9593 17.0333 98.9593 15.94V9.82L99.3193 10.18H97.3993V8.68L99.3593 8.22L98.9593 8.7V5.98L101.779 5.48V8.7L101.479 8.32H104.519L104.479 10.18H101.479L101.779 9.82V15.56C101.779 16.1333 101.873 16.5467 102.059 16.8C102.246 17.0533 102.526 17.18 102.899 17.18C103.113 17.18 103.346 17.1467 103.599 17.08C103.866 17 104.153 16.9 104.459 16.78L104.979 18.32C103.859 18.9333 102.786 19.24 101.759 19.24ZM110.758 8.08C112.331 8.08 113.558 8.54667 114.438 9.48C115.318 10.4133 115.758 11.74 115.758 13.46C115.758 14.66 115.545 15.6933 115.118 16.56C114.691 17.4133 114.078 18.0733 113.278 18.54C112.478 19.0067 111.518 19.24 110.398 19.24C108.825 19.24 107.605 18.7733 106.738 17.84C105.885 16.9067 105.458 15.58 105.458 13.86C105.458 12.66 105.665 11.6333 106.078 10.78C106.505 9.91333 107.111 9.24667 107.898 8.78C108.685 8.31333 109.638 8.08 110.758 8.08ZM110.618 10.08C109.858 10.08 109.291 10.38 108.918 10.98C108.545 11.5667 108.358 12.48 108.358 13.72C108.358 14.96 108.538 15.86 108.898 16.42C109.258 16.9667 109.805 17.24 110.538 17.24C111.071 17.24 111.505 17.1067 111.838 16.84C112.171 16.5733 112.425 16.1667 112.598 15.62C112.771 15.0733 112.858 14.4 112.858 13.6C112.858 12.3867 112.671 11.5 112.298 10.94C111.925 10.3667 111.365 10.08 110.618 10.08ZM127.261 9.94L126.861 10.04C127.501 9.38667 128.181 8.9 128.901 8.58C129.621 8.24667 130.308 8.08 130.961 8.08C131.801 8.08 132.501 8.36 133.061 8.92C133.634 9.46667 133.921 10.3133 133.921 11.46V17.48L133.661 17.08L135.261 17.56V19H130.001V17.56L131.461 17.12L131.121 17.54V12.08C131.121 11.44 130.988 10.9667 130.721 10.66C130.468 10.3533 130.134 10.2 129.721 10.2C129.374 10.2 128.988 10.3067 128.561 10.52C128.134 10.7333 127.708 11.0467 127.281 11.46L127.481 10.84C127.508 10.9467 127.521 11.0467 127.521 11.14C127.521 11.22 127.521 11.2933 127.521 11.36V17.48L127.261 17.08L128.661 17.56V19H123.581V17.56L125.041 17.12L124.721 17.54V12.08C124.721 11.44 124.588 10.9667 124.321 10.66C124.054 10.3533 123.721 10.2 123.321 10.2C122.974 10.2 122.588 10.3 122.161 10.5C121.734 10.7 121.321 11 120.921 11.4L121.101 10.98V17.54L120.841 17.12L122.241 17.56V19H116.961V17.56L118.641 17.08L118.301 17.48V9.86L118.641 10.32L116.961 9.82V8.38L120.481 8.22L120.841 10.14L120.481 10C121.108 9.37333 121.774 8.9 122.481 8.58C123.201 8.24667 123.888 8.08 124.541 8.08C125.154 8.08 125.701 8.23333 126.181 8.54C126.661 8.83333 127.021 9.3 127.261 9.94ZM140.963 19.24C139.99 19.24 139.136 19.04 138.403 18.64C137.67 18.2267 137.096 17.62 136.683 16.82C136.283 16.0067 136.083 15.02 136.083 13.86C136.083 12.66 136.296 11.6333 136.723 10.78C137.163 9.91333 137.776 9.24667 138.563 8.78C139.35 8.31333 140.276 8.08 141.343 8.08C142.383 8.08 143.23 8.28667 143.883 8.7C144.536 9.11333 145.016 9.68 145.323 10.4C145.63 11.1067 145.783 11.9067 145.783 12.8C145.783 13.0267 145.77 13.2533 145.743 13.48C145.73 13.7067 145.703 13.9467 145.663 14.2H138.343V12.54H143.263L142.903 12.8C142.916 12.2667 142.863 11.8 142.743 11.4C142.636 10.9867 142.45 10.6667 142.183 10.44C141.93 10.2133 141.576 10.1 141.123 10.1C140.603 10.1 140.183 10.2533 139.863 10.56C139.543 10.8533 139.31 11.2533 139.163 11.76C139.03 12.2667 138.963 12.8333 138.963 13.46C138.963 14.1667 139.05 14.8 139.223 15.36C139.396 15.92 139.676 16.36 140.063 16.68C140.463 17 140.983 17.16 141.623 17.16C142.076 17.16 142.563 17.08 143.083 16.92C143.616 16.7467 144.17 16.4933 144.743 16.16L145.683 17.66C144.91 18.1933 144.116 18.5933 143.303 18.86C142.503 19.1133 141.723 19.24 140.963 19.24ZM147.019 19V17.56L148.639 17.1L148.359 17.52V9.84L148.679 10.32L147.019 9.82V8.38L150.539 8.22L150.899 10.12L150.539 10.04C151.139 9.41333 151.733 8.93333 152.319 8.6C152.906 8.25333 153.533 8.08 154.199 8.08C154.626 8.08 155.079 8.14667 155.559 8.28L155.379 11.98H153.759L153.459 9.82L153.719 10.36C153.639 10.3333 153.553 10.3133 153.459 10.3C153.379 10.2867 153.299 10.28 153.219 10.28C152.806 10.28 152.393 10.4067 151.979 10.66C151.579 10.9133 151.233 11.24 150.939 11.64L151.159 10.88V17.52L150.839 17.1L152.819 17.56V19H147.019ZM58.9263 30.36L57.1663 30.96L57.4663 30.52V41.46L57.1663 41.04L58.9263 41.56V43H53.1263V41.56L54.8663 41.06L54.6063 41.46V30.52L54.9663 30.96L53.1263 30.46V29.02L58.9263 28.92V30.36ZM60.2323 43V41.56L61.9123 41.08L61.5723 41.48V33.86L61.9123 34.32L60.2323 33.82V32.38L63.7523 32.22L64.1123 34.14L63.7523 34C64.3923 33.3467 65.0723 32.8667 65.7923 32.56C66.5123 32.24 67.199 32.08 67.8523 32.08C68.759 32.08 69.5123 32.3667 70.1123 32.94C70.7123 33.5 71.0057 34.3533 70.9923 35.5V41.48L70.7323 41.08L72.3323 41.56V43H66.9923V41.56L68.5123 41.12L68.1923 41.54V36.1C68.1923 35.4467 68.0457 34.9667 67.7523 34.66C67.4723 34.3533 67.099 34.2 66.6323 34.2C66.2723 34.2 65.879 34.3 65.4523 34.5C65.0257 34.7 64.6057 35 64.1923 35.4L64.3723 34.98V41.54L64.1123 41.12L65.5723 41.56V43H60.2323ZM73.1434 43V41.56L74.7434 41.1L74.4834 41.4V33.98L74.7434 34.28H73.0834V32.78L74.8034 32.34L74.4834 32.76V31.48C74.4834 30.0533 74.8634 29 75.6234 28.32C76.3834 27.6267 77.4034 27.28 78.6834 27.28C79.0568 27.28 79.4368 27.3133 79.8234 27.38C80.2234 27.4467 80.6501 27.54 81.1034 27.66L80.7034 29.52C80.4501 29.44 80.1901 29.38 79.9234 29.34C79.6568 29.2867 79.4034 29.26 79.1634 29.26C78.6168 29.26 78.1634 29.4133 77.8034 29.72C77.4568 30.0133 77.2834 30.52 77.2834 31.24V32.76L76.9234 32.42H79.7834L79.7234 34.28H77.0034L77.2834 33.98V41.4L77.0234 41.1L78.8834 41.56V43H73.1434ZM85.7286 32.08C87.3019 32.08 88.5286 32.5467 89.4086 33.48C90.2886 34.4133 90.7286 35.74 90.7286 37.46C90.7286 38.66 90.5153 39.6933 90.0886 40.56C89.6619 41.4133 89.0486 42.0733 88.2486 42.54C87.4486 43.0067 86.4886 43.24 85.3686 43.24C83.7953 43.24 82.5753 42.7733 81.7086 41.84C80.8553 40.9067 80.4286 39.58 80.4286 37.86C80.4286 36.66 80.6353 35.6333 81.0486 34.78C81.4753 33.9133 82.0819 33.2467 82.8686 32.78C83.6553 32.3133 84.6086 32.08 85.7286 32.08ZM85.5886 34.08C84.8286 34.08 84.2619 34.38 83.8886 34.98C83.5153 35.5667 83.3286 36.48 83.3286 37.72C83.3286 38.96 83.5086 39.86 83.8686 40.42C84.2286 40.9667 84.7753 41.24 85.5086 41.24C86.0419 41.24 86.4753 41.1067 86.8086 40.84C87.1419 40.5733 87.3953 40.1667 87.5686 39.62C87.7419 39.0733 87.8286 38.4 87.8286 37.6C87.8286 36.3867 87.6419 35.5 87.2686 34.94C86.8953 34.3667 86.3353 34.08 85.5886 34.08ZM91.9316 43V41.56L93.5516 41.1L93.2716 41.52V33.84L93.5916 34.32L91.9316 33.82V32.38L95.4516 32.22L95.8116 34.12L95.4516 34.04C96.0516 33.4133 96.6449 32.9333 97.2316 32.6C97.8182 32.2533 98.4449 32.08 99.1116 32.08C99.5382 32.08 99.9916 32.1467 100.472 32.28L100.292 35.98H98.6716L98.3716 33.82L98.6316 34.36C98.5516 34.3333 98.4649 34.3133 98.3716 34.3C98.2916 34.2867 98.2116 34.28 98.1316 34.28C97.7182 34.28 97.3049 34.4067 96.8916 34.66C96.4916 34.9133 96.1449 35.24 95.8516 35.64L96.0716 34.88V41.52L95.7516 41.1L97.7316 41.56V43H91.9316ZM111.509 33.94L111.109 34.04C111.749 33.3867 112.429 32.9 113.149 32.58C113.869 32.2467 114.556 32.08 115.209 32.08C116.049 32.08 116.749 32.36 117.309 32.92C117.882 33.4667 118.169 34.3133 118.169 35.46V41.48L117.909 41.08L119.509 41.56V43H114.249V41.56L115.709 41.12L115.369 41.54V36.08C115.369 35.44 115.236 34.9667 114.969 34.66C114.716 34.3533 114.382 34.2 113.969 34.2C113.622 34.2 113.236 34.3067 112.809 34.52C112.382 34.7333 111.956 35.0467 111.529 35.46L111.729 34.84C111.756 34.9467 111.769 35.0467 111.769 35.14C111.769 35.22 111.769 35.2933 111.769 35.36V41.48L111.509 41.08L112.909 41.56V43H107.829V41.56L109.289 41.12L108.969 41.54V36.08C108.969 35.44 108.836 34.9667 108.569 34.66C108.302 34.3533 107.969 34.2 107.569 34.2C107.222 34.2 106.836 34.3 106.409 34.5C105.982 34.7 105.569 35 105.169 35.4L105.349 34.98V41.54L105.089 41.12L106.489 41.56V43H101.209V41.56L102.889 41.08L102.549 41.48V33.86L102.889 34.32L101.209 33.82V32.38L104.729 32.22L105.089 34.14L104.729 34C105.356 33.3733 106.022 32.9 106.729 32.58C107.449 32.2467 108.136 32.08 108.789 32.08C109.402 32.08 109.949 32.2333 110.429 32.54C110.909 32.8333 111.269 33.3 111.509 33.94ZM129.351 41.58L128.971 41.02L130.691 41.56V42.98L127.191 43.16L126.811 41.24L127.011 41.3C126.478 41.9533 125.898 42.44 125.271 42.76C124.644 43.08 123.998 43.24 123.331 43.24C122.478 43.24 121.771 42.9667 121.211 42.42C120.651 41.8733 120.371 41.0867 120.371 40.06C120.371 39.3 120.531 38.7 120.851 38.26C121.184 37.8067 121.664 37.48 122.291 37.28C122.918 37.08 123.678 36.98 124.571 36.98H126.751L126.551 37.2V35.88C126.551 35.2533 126.398 34.8067 126.091 34.54C125.798 34.2733 125.364 34.14 124.791 34.14C124.511 34.14 124.211 34.1667 123.891 34.22C123.571 34.2733 123.224 34.3533 122.851 34.46L123.131 34.16L122.871 35.78H121.131L120.971 32.86C121.878 32.5933 122.704 32.4 123.451 32.28C124.211 32.1467 124.904 32.08 125.531 32.08C126.771 32.08 127.718 32.3467 128.371 32.88C129.024 33.4133 129.351 34.24 129.351 35.36V41.58ZM123.191 39.78C123.191 40.2733 123.304 40.64 123.531 40.88C123.771 41.1067 124.071 41.22 124.431 41.22C124.764 41.22 125.131 41.12 125.531 40.92C125.931 40.7067 126.311 40.42 126.671 40.06L126.551 40.54V38.26L126.751 38.46H125.031C124.338 38.46 123.858 38.5667 123.591 38.78C123.324 38.9933 123.191 39.3267 123.191 39.78ZM135.402 43.24C134.482 43.24 133.782 42.9667 133.302 42.42C132.835 41.86 132.602 41.0333 132.602 39.94V33.82L132.962 34.18H131.042V32.68L133.002 32.22L132.602 32.7V29.98L135.422 29.48V32.7L135.122 32.32H138.162L138.122 34.18H135.122L135.422 33.82V39.56C135.422 40.1333 135.515 40.5467 135.702 40.8C135.889 41.0533 136.169 41.18 136.542 41.18C136.755 41.18 136.989 41.1467 137.242 41.08C137.509 41 137.795 40.9 138.102 40.78L138.622 42.32C137.502 42.9333 136.429 43.24 135.402 43.24ZM143.533 41.36L143.333 41.12L144.873 41.56V43H139.393V41.56L140.933 41.12L140.733 41.36V34.06L140.913 34.24L139.393 33.82V32.38L143.533 32.24V41.36ZM142.053 30.68C141.559 30.68 141.159 30.54 140.853 30.26C140.559 29.98 140.413 29.58 140.413 29.06C140.413 28.5 140.566 28.0867 140.873 27.82C141.193 27.54 141.593 27.4 142.073 27.4C142.539 27.4 142.926 27.54 143.233 27.82C143.539 28.0867 143.693 28.4933 143.693 29.04C143.693 29.5867 143.533 30 143.213 30.28C142.906 30.5467 142.519 30.68 142.053 30.68ZM151.1 32.08C152.673 32.08 153.9 32.5467 154.78 33.48C155.66 34.4133 156.1 35.74 156.1 37.46C156.1 38.66 155.886 39.6933 155.46 40.56C155.033 41.4133 154.42 42.0733 153.62 42.54C152.82 43.0067 151.86 43.24 150.74 43.24C149.166 43.24 147.946 42.7733 147.08 41.84C146.226 40.9067 145.8 39.58 145.8 37.86C145.8 36.66 146.006 35.6333 146.42 34.78C146.846 33.9133 147.453 33.2467 148.24 32.78C149.026 32.3133 149.98 32.08 151.1 32.08ZM150.96 34.08C150.2 34.08 149.633 34.38 149.26 34.98C148.886 35.5667 148.7 36.48 148.7 37.72C148.7 38.96 148.88 39.86 149.24 40.42C149.6 40.9667 150.146 41.24 150.88 41.24C151.413 41.24 151.846 41.1067 152.18 40.84C152.513 40.5733 152.766 40.1667 152.94 39.62C153.113 39.0733 153.2 38.4 153.2 37.6C153.2 36.3867 153.013 35.5 152.64 34.94C152.266 34.3667 151.706 34.08 150.96 34.08ZM157.303 43V41.56L158.983 41.08L158.643 41.48V33.86L158.983 34.32L157.303 33.82V32.38L160.823 32.22L161.183 34.14L160.823 34C161.463 33.3467 162.143 32.8667 162.863 32.56C163.583 32.24 164.269 32.08 164.923 32.08C165.829 32.08 166.583 32.3667 167.183 32.94C167.783 33.5 168.076 34.3533 168.063 35.5V41.48L167.803 41.08L169.403 41.56V43H164.063V41.56L165.583 41.12L165.263 41.54V36.1C165.263 35.4467 165.116 34.9667 164.823 34.66C164.543 34.3533 164.169 34.2 163.703 34.2C163.343 34.2 162.949 34.3 162.523 34.5C162.096 34.7 161.676 35 161.263 35.4L161.443 34.98V41.54L161.183 41.12L162.643 41.56V43H157.303Z" fill="#2E2836"/>
<path d="M315.124 14.02H313.544L314.124 13.58V17.6L313.724 17.04L316.024 17.56V19H309.784V17.56L311.704 17L311.264 17.6V6.36L311.764 6.98L309.784 6.46V5.02L314.184 4.92H316.004C317.111 4.92 318.018 5.11333 318.724 5.5C319.431 5.87333 319.951 6.38667 320.284 7.04C320.631 7.69333 320.804 8.43333 320.804 9.26C320.804 10.1533 320.598 10.9667 320.184 11.7C319.784 12.42 319.164 12.9867 318.324 13.4C317.498 13.8133 316.431 14.02 315.124 14.02ZM315.544 6.96H313.684L314.124 6.52V12.4L313.544 11.96H315.144C316.038 11.96 316.718 11.72 317.184 11.24C317.651 10.76 317.884 10.12 317.884 9.32C317.884 8.58667 317.684 8.01333 317.284 7.6C316.898 7.17333 316.318 6.96 315.544 6.96ZM330.501 17.58L330.121 17.02L331.841 17.56V18.98L328.341 19.16L327.961 17.24L328.161 17.3C327.628 17.9533 327.048 18.44 326.421 18.76C325.795 19.08 325.148 19.24 324.481 19.24C323.628 19.24 322.921 18.9667 322.361 18.42C321.801 17.8733 321.521 17.0867 321.521 16.06C321.521 15.3 321.681 14.7 322.001 14.26C322.335 13.8067 322.815 13.48 323.441 13.28C324.068 13.08 324.828 12.98 325.721 12.98H327.901L327.701 13.2V11.88C327.701 11.2533 327.548 10.8067 327.241 10.54C326.948 10.2733 326.515 10.14 325.941 10.14C325.661 10.14 325.361 10.1667 325.041 10.22C324.721 10.2733 324.375 10.3533 324.001 10.46L324.281 10.16L324.021 11.78H322.281L322.121 8.86C323.028 8.59333 323.855 8.4 324.601 8.28C325.361 8.14667 326.055 8.08 326.681 8.08C327.921 8.08 328.868 8.34667 329.521 8.88C330.175 9.41333 330.501 10.24 330.501 11.36V17.58ZM324.341 15.78C324.341 16.2733 324.455 16.64 324.681 16.88C324.921 17.1067 325.221 17.22 325.581 17.22C325.915 17.22 326.281 17.12 326.681 16.92C327.081 16.7067 327.461 16.42 327.821 16.06L327.701 16.54V14.26L327.901 14.46H326.181C325.488 14.46 325.008 14.5667 324.741 14.78C324.475 14.9933 324.341 15.3267 324.341 15.78ZM331.627 23.7L331.887 21.72C332.1 21.7467 332.293 21.7667 332.467 21.78C332.653 21.7933 332.827 21.8 332.987 21.8C333.573 21.8 334.047 21.68 334.407 21.44C334.78 21.2133 335.1 20.8533 335.367 20.36C335.647 19.88 335.92 19.2533 336.187 18.48L336.087 19.42L332.247 9.88L332.507 10.12L331.347 9.84V8.4L336.327 8.24V9.66L334.927 10.04L335.067 9.8L337.607 17.28L336.927 17.14L339.187 9.84L339.327 10.12L337.947 9.84V8.4L342.667 8.24V9.66L341.407 10.06L341.787 9.82L338.487 18.96C338.207 19.7333 337.907 20.42 337.587 21.02C337.267 21.62 336.9 22.1267 336.487 22.54C336.087 22.9667 335.613 23.2867 335.067 23.5C334.533 23.7267 333.907 23.84 333.187 23.84C332.72 23.84 332.2 23.7933 331.627 23.7ZM353.401 9.94L353.001 10.04C353.641 9.38667 354.321 8.9 355.041 8.58C355.761 8.24667 356.448 8.08 357.101 8.08C357.941 8.08 358.641 8.36 359.201 8.92C359.775 9.46667 360.061 10.3133 360.061 11.46V17.48L359.801 17.08L361.401 17.56V19H356.141V17.56L357.601 17.12L357.261 17.54V12.08C357.261 11.44 357.128 10.9667 356.861 10.66C356.608 10.3533 356.275 10.2 355.861 10.2C355.515 10.2 355.128 10.3067 354.701 10.52C354.275 10.7333 353.848 11.0467 353.421 11.46L353.621 10.84C353.648 10.9467 353.661 11.0467 353.661 11.14C353.661 11.22 353.661 11.2933 353.661 11.36V17.48L353.401 17.08L354.801 17.56V19H349.721V17.56L351.181 17.12L350.861 17.54V12.08C350.861 11.44 350.728 10.9667 350.461 10.66C350.195 10.3533 349.861 10.2 349.461 10.2C349.115 10.2 348.728 10.3 348.301 10.5C347.875 10.7 347.461 11 347.061 11.4L347.241 10.98V17.54L346.981 17.12L348.381 17.56V19H343.101V17.56L344.781 17.08L344.441 17.48V9.86L344.781 10.32L343.101 9.82V8.38L346.621 8.22L346.981 10.14L346.621 10C347.248 9.37333 347.915 8.9 348.621 8.58C349.341 8.24667 350.028 8.08 350.681 8.08C351.295 8.08 351.841 8.23333 352.321 8.54C352.801 8.83333 353.161 9.3 353.401 9.94ZM367.104 19.24C366.13 19.24 365.277 19.04 364.544 18.64C363.81 18.2267 363.237 17.62 362.824 16.82C362.424 16.0067 362.224 15.02 362.224 13.86C362.224 12.66 362.437 11.6333 362.864 10.78C363.304 9.91333 363.917 9.24667 364.704 8.78C365.49 8.31333 366.417 8.08 367.484 8.08C368.524 8.08 369.37 8.28667 370.024 8.7C370.677 9.11333 371.157 9.68 371.464 10.4C371.77 11.1067 371.924 11.9067 371.924 12.8C371.924 13.0267 371.91 13.2533 371.884 13.48C371.87 13.7067 371.844 13.9467 371.804 14.2H364.484V12.54H369.404L369.044 12.8C369.057 12.2667 369.004 11.8 368.884 11.4C368.777 10.9867 368.59 10.6667 368.324 10.44C368.07 10.2133 367.717 10.1 367.264 10.1C366.744 10.1 366.324 10.2533 366.004 10.56C365.684 10.8533 365.45 11.2533 365.304 11.76C365.17 12.2667 365.104 12.8333 365.104 13.46C365.104 14.1667 365.19 14.8 365.364 15.36C365.537 15.92 365.817 16.36 366.204 16.68C366.604 17 367.124 17.16 367.764 17.16C368.217 17.16 368.704 17.08 369.224 16.92C369.757 16.7467 370.31 16.4933 370.884 16.16L371.824 17.66C371.05 18.1933 370.257 18.5933 369.444 18.86C368.644 19.1133 367.864 19.24 367.104 19.24ZM373.16 19V17.56L374.84 17.08L374.5 17.48V9.86L374.84 10.32L373.16 9.82V8.38L376.68 8.22L377.04 10.14L376.68 10C377.32 9.34667 378 8.86667 378.72 8.56C379.44 8.24 380.127 8.08 380.78 8.08C381.687 8.08 382.44 8.36667 383.04 8.94C383.64 9.5 383.933 10.3533 383.92 11.5V17.48L383.66 17.08L385.26 17.56V19H379.92V17.56L381.44 17.12L381.12 17.54V12.1C381.12 11.4467 380.973 10.9667 380.68 10.66C380.4 10.3533 380.027 10.2 379.56 10.2C379.2 10.2 378.807 10.3 378.38 10.5C377.953 10.7 377.533 11 377.12 11.4L377.3 10.98V17.54L377.04 17.12L378.5 17.56V19H373.16ZM389.931 19.24C389.011 19.24 388.311 18.9667 387.831 18.42C387.365 17.86 387.131 17.0333 387.131 15.94V9.82L387.491 10.18H385.571V8.68L387.531 8.22L387.131 8.7V5.98L389.951 5.48V8.7L389.651 8.32H392.691L392.651 10.18H389.651L389.951 9.82V15.56C389.951 16.1333 390.045 16.5467 390.231 16.8C390.418 17.0533 390.698 17.18 391.071 17.18C391.285 17.18 391.518 17.1467 391.771 17.08C392.038 17 392.325 16.9 392.631 16.78L393.151 18.32C392.031 18.9333 390.958 19.24 389.931 19.24ZM326.758 28.92C327.732 28.92 328.612 29.06 329.398 29.34C330.198 29.62 330.878 30.0467 331.438 30.62C331.998 31.1933 332.425 31.9067 332.718 32.76C333.025 33.6 333.178 34.5867 333.178 35.72C333.178 37.3067 332.892 38.64 332.318 39.72C331.758 40.8 330.965 41.62 329.938 42.18C328.925 42.7267 327.725 43 326.338 43H320.458V41.56L322.318 41.02L321.938 41.6V30.4L322.358 30.98L320.458 30.46V29.02L324.998 28.92H326.758ZM326.478 40.94C326.905 40.94 327.332 40.88 327.758 40.76C328.185 40.6267 328.572 40.3867 328.918 40.04C329.278 39.6933 329.565 39.1867 329.778 38.52C329.992 37.8533 330.098 36.9733 330.098 35.88C330.098 34.8267 329.998 33.98 329.798 33.34C329.598 32.6867 329.332 32.1933 328.998 31.86C328.665 31.5133 328.292 31.28 327.878 31.16C327.478 31.04 327.078 30.98 326.678 30.98H324.358L324.798 30.54V41.38L324.358 40.94H326.478ZM339.418 43.24C338.445 43.24 337.591 43.04 336.858 42.64C336.125 42.2267 335.551 41.62 335.138 40.82C334.738 40.0067 334.538 39.02 334.538 37.86C334.538 36.66 334.751 35.6333 335.178 34.78C335.618 33.9133 336.231 33.2467 337.018 32.78C337.805 32.3133 338.731 32.08 339.798 32.08C340.838 32.08 341.685 32.2867 342.338 32.7C342.991 33.1133 343.471 33.68 343.778 34.4C344.085 35.1067 344.238 35.9067 344.238 36.8C344.238 37.0267 344.225 37.2533 344.198 37.48C344.185 37.7067 344.158 37.9467 344.118 38.2H336.798V36.54H341.718L341.358 36.8C341.371 36.2667 341.318 35.8 341.198 35.4C341.091 34.9867 340.905 34.6667 340.638 34.44C340.385 34.2133 340.031 34.1 339.578 34.1C339.058 34.1 338.638 34.2533 338.318 34.56C337.998 34.8533 337.765 35.2533 337.618 35.76C337.485 36.2667 337.418 36.8333 337.418 37.46C337.418 38.1667 337.505 38.8 337.678 39.36C337.851 39.92 338.131 40.36 338.518 40.68C338.918 41 339.438 41.16 340.078 41.16C340.531 41.16 341.018 41.08 341.538 40.92C342.071 40.7467 342.625 40.4933 343.198 40.16L344.138 41.66C343.365 42.1933 342.571 42.5933 341.758 42.86C340.958 43.1133 340.178 43.24 339.418 43.24ZM349.375 43.24C348.455 43.24 347.755 42.9667 347.275 42.42C346.808 41.86 346.575 41.0333 346.575 39.94V33.82L346.935 34.18H345.015V32.68L346.975 32.22L346.575 32.7V29.98L349.395 29.48V32.7L349.095 32.32H352.135L352.095 34.18H349.095L349.395 33.82V39.56C349.395 40.1333 349.488 40.5467 349.675 40.8C349.861 41.0533 350.141 41.18 350.515 41.18C350.728 41.18 350.961 41.1467 351.215 41.08C351.481 41 351.768 40.9 352.075 40.78L352.595 42.32C351.475 42.9333 350.401 43.24 349.375 43.24ZM362.23 41.58L361.85 41.02L363.57 41.56V42.98L360.07 43.16L359.69 41.24L359.89 41.3C359.357 41.9533 358.777 42.44 358.15 42.76C357.523 43.08 356.877 43.24 356.21 43.24C355.357 43.24 354.65 42.9667 354.09 42.42C353.53 41.8733 353.25 41.0867 353.25 40.06C353.25 39.3 353.41 38.7 353.73 38.26C354.063 37.8067 354.543 37.48 355.17 37.28C355.797 37.08 356.557 36.98 357.45 36.98H359.63L359.43 37.2V35.88C359.43 35.2533 359.277 34.8067 358.97 34.54C358.677 34.2733 358.243 34.14 357.67 34.14C357.39 34.14 357.09 34.1667 356.77 34.22C356.45 34.2733 356.103 34.3533 355.73 34.46L356.01 34.16L355.75 35.78H354.01L353.85 32.86C354.757 32.5933 355.583 32.4 356.33 32.28C357.09 32.1467 357.783 32.08 358.41 32.08C359.65 32.08 360.597 32.3467 361.25 32.88C361.903 33.4133 362.23 34.24 362.23 35.36V41.58ZM356.07 39.78C356.07 40.2733 356.183 40.64 356.41 40.88C356.65 41.1067 356.95 41.22 357.31 41.22C357.643 41.22 358.01 41.12 358.41 40.92C358.81 40.7067 359.19 40.42 359.55 40.06L359.43 40.54V38.26L359.63 38.46H357.91C357.217 38.46 356.737 38.5667 356.47 38.78C356.203 38.9933 356.07 39.3267 356.07 39.78ZM368.521 41.36L368.321 41.12L369.861 41.56V43H364.381V41.56L365.921 41.12L365.721 41.36V34.06L365.901 34.24L364.381 33.82V32.38L368.521 32.24V41.36ZM367.041 30.68C366.547 30.68 366.147 30.54 365.841 30.26C365.547 29.98 365.401 29.58 365.401 29.06C365.401 28.5 365.554 28.0867 365.861 27.82C366.181 27.54 366.581 27.4 367.061 27.4C367.527 27.4 367.914 27.54 368.221 27.82C368.527 28.0867 368.681 28.4933 368.681 29.04C368.681 29.5867 368.521 30 368.201 30.28C367.894 30.5467 367.507 30.68 367.041 30.68ZM374.745 41.36L374.545 41.12L376.085 41.56V43H370.625V41.56L372.165 41.12L371.945 41.36V29.26L372.125 29.46L370.625 29.04V27.6L374.745 27.44V41.36ZM380.058 35.02C380.058 35.3267 380.192 35.5733 380.458 35.76C380.725 35.9467 381.065 36.1067 381.478 36.24C381.905 36.3733 382.352 36.5133 382.818 36.66C383.298 36.8067 383.745 37 384.158 37.24C384.585 37.4667 384.932 37.7733 385.198 38.16C385.465 38.5467 385.598 39.0467 385.598 39.66C385.598 40.4467 385.385 41.1067 384.958 41.64C384.532 42.1733 383.952 42.5733 383.218 42.84C382.485 43.1067 381.658 43.24 380.738 43.24C380.205 43.24 379.638 43.1933 379.038 43.1C378.452 43.0067 377.845 42.88 377.218 42.72L377.338 39.7H379.098L379.318 41.46L379.078 41.12C379.345 41.2 379.638 41.2667 379.958 41.32C380.278 41.36 380.558 41.38 380.798 41.38C381.145 41.38 381.465 41.3333 381.758 41.24C382.065 41.1467 382.312 41.0133 382.498 40.84C382.698 40.6533 382.798 40.42 382.798 40.14C382.798 39.82 382.665 39.5667 382.398 39.38C382.132 39.1933 381.785 39.0333 381.358 38.9C380.945 38.7667 380.505 38.6267 380.038 38.48C379.585 38.3333 379.145 38.14 378.718 37.9C378.305 37.66 377.965 37.34 377.698 36.94C377.432 36.54 377.298 36.02 377.298 35.38C377.298 34.6067 377.492 33.98 377.878 33.5C378.265 33.0067 378.778 32.6467 379.418 32.42C380.072 32.1933 380.785 32.08 381.558 32.08C382.105 32.08 382.685 32.1333 383.298 32.24C383.912 32.3333 384.538 32.4733 385.178 32.66L385.078 35.34H383.298L382.978 33.76L383.358 34.18C382.732 34.0067 382.178 33.92 381.698 33.92C381.205 33.92 380.805 34.02 380.498 34.22C380.205 34.4067 380.058 34.6733 380.058 35.02Z" fill="#2E2836"/>
<path d="M563.658 19V17.56L565.498 17.04L565.138 17.6V6.4L565.638 7L563.658 6.46V5.02L568.118 4.92H570.058C571.658 4.92 572.864 5.25333 573.678 5.92C574.491 6.58667 574.898 7.54667 574.898 8.8C574.898 9.92 574.551 10.8467 573.858 11.58C573.178 12.3133 572.104 12.76 570.638 12.92L570.658 12.6C571.178 12.6133 571.604 12.6933 571.938 12.84C572.271 12.9867 572.544 13.1933 572.758 13.46C572.984 13.7133 573.191 14.02 573.378 14.38L574.978 17.46L574.158 16.96L575.998 17.56V19H572.718L570.918 15.14C570.678 14.6333 570.471 14.2467 570.298 13.98C570.124 13.7 569.911 13.5133 569.658 13.42C569.404 13.3133 569.038 13.2667 568.558 13.28H567.518L567.998 12.88V17.6L567.618 17.02L569.638 17.56V19H563.658ZM567.998 12L567.518 11.3H569.178C570.111 11.3 570.811 11.1067 571.278 10.72C571.744 10.3333 571.978 9.76 571.978 9C571.978 8.36 571.791 7.86 571.418 7.5C571.044 7.14 570.471 6.96 569.698 6.96H567.518L567.998 6.52V12ZM581.406 19.24C580.433 19.24 579.58 19.04 578.846 18.64C578.113 18.2267 577.54 17.62 577.126 16.82C576.726 16.0067 576.526 15.02 576.526 13.86C576.526 12.66 576.74 11.6333 577.166 10.78C577.606 9.91333 578.22 9.24667 579.006 8.78C579.793 8.31333 580.72 8.08 581.786 8.08C582.826 8.08 583.673 8.28667 584.326 8.7C584.98 9.11333 585.46 9.68 585.766 10.4C586.073 11.1067 586.226 11.9067 586.226 12.8C586.226 13.0267 586.213 13.2533 586.186 13.48C586.173 13.7067 586.146 13.9467 586.106 14.2H578.786V12.54H583.706L583.346 12.8C583.36 12.2667 583.306 11.8 583.186 11.4C583.08 10.9867 582.893 10.6667 582.626 10.44C582.373 10.2133 582.02 10.1 581.566 10.1C581.046 10.1 580.626 10.2533 580.306 10.56C579.986 10.8533 579.753 11.2533 579.606 11.76C579.473 12.2667 579.406 12.8333 579.406 13.46C579.406 14.1667 579.493 14.8 579.666 15.36C579.84 15.92 580.12 16.36 580.506 16.68C580.906 17 581.426 17.16 582.066 17.16C582.52 17.16 583.006 17.08 583.526 16.92C584.06 16.7467 584.613 16.4933 585.186 16.16L586.126 17.66C585.353 18.1933 584.56 18.5933 583.746 18.86C582.946 19.1133 582.166 19.24 581.406 19.24ZM593.01 8.4L597.53 8.24V9.66L596.39 10.16L596.77 9.74L593.47 19.04H590.19L587.29 9.84L587.69 10.16L586.49 9.84V8.4L591.39 8.24V9.66L589.93 10.1L590.13 9.74L592.17 17.26H591.95L594.21 9.9L594.37 10.12L593.01 9.84V8.4ZM602.111 17.36L601.911 17.12L603.451 17.56V19H597.971V17.56L599.511 17.12L599.311 17.36V10.06L599.491 10.24L597.971 9.82V8.38L602.111 8.24V17.36ZM600.631 6.68C600.137 6.68 599.737 6.54 599.431 6.26C599.137 5.98 598.991 5.58 598.991 5.06C598.991 4.5 599.144 4.08667 599.451 3.82C599.771 3.54 600.171 3.4 600.651 3.4C601.117 3.4 601.504 3.54 601.811 3.82C602.117 4.08667 602.271 4.49333 602.271 5.04C602.271 5.58667 602.111 6 601.791 6.28C601.484 6.54667 601.097 6.68 600.631 6.68ZM609.258 19.24C608.284 19.24 607.431 19.04 606.698 18.64C605.964 18.2267 605.391 17.62 604.978 16.82C604.578 16.0067 604.378 15.02 604.378 13.86C604.378 12.66 604.591 11.6333 605.018 10.78C605.458 9.91333 606.071 9.24667 606.858 8.78C607.644 8.31333 608.571 8.08 609.638 8.08C610.678 8.08 611.524 8.28667 612.178 8.7C612.831 9.11333 613.311 9.68 613.618 10.4C613.924 11.1067 614.078 11.9067 614.078 12.8C614.078 13.0267 614.064 13.2533 614.038 13.48C614.024 13.7067 613.998 13.9467 613.958 14.2H606.638V12.54H611.558L611.198 12.8C611.211 12.2667 611.158 11.8 611.038 11.4C610.931 10.9867 610.744 10.6667 610.478 10.44C610.224 10.2133 609.871 10.1 609.418 10.1C608.898 10.1 608.478 10.2533 608.158 10.56C607.838 10.8533 607.604 11.2533 607.458 11.76C607.324 12.2667 607.258 12.8333 607.258 13.46C607.258 14.1667 607.344 14.8 607.518 15.36C607.691 15.92 607.971 16.36 608.358 16.68C608.758 17 609.278 17.16 609.918 17.16C610.371 17.16 610.858 17.08 611.378 16.92C611.911 16.7467 612.464 16.4933 613.038 16.16L613.978 17.66C613.204 18.1933 612.411 18.5933 611.598 18.86C610.798 19.1133 610.018 19.24 609.258 19.24ZM626.882 8.4L631.142 8.24V9.66L629.902 10.06L630.262 9.76L627.722 19.04H624.702L622.542 10.44L623.082 10.46L620.642 19.04H617.622L615.262 9.88L615.562 10.14L614.342 9.84V8.4L619.062 8.24V9.66L617.602 10.06L617.902 9.84L619.582 17.36H619.122L621.502 8.38L624.362 8.22L626.562 17.46H626.142L627.982 9.9L628.242 10.16L626.882 9.84V8.4ZM544.926 30.36L543.166 30.96L543.466 30.52V41.46L543.166 41.04L544.926 41.56V43H539.126V41.56L540.866 41.06L540.606 41.46V30.52L540.966 30.96L539.126 30.46V29.02L544.926 28.92V30.36ZM546.232 43V41.56L547.912 41.08L547.572 41.48V33.86L547.912 34.32L546.232 33.82V32.38L549.752 32.22L550.112 34.14L549.752 34C550.392 33.3467 551.072 32.8667 551.792 32.56C552.512 32.24 553.199 32.08 553.852 32.08C554.759 32.08 555.512 32.3667 556.112 32.94C556.712 33.5 557.006 34.3533 556.992 35.5V41.48L556.732 41.08L558.332 41.56V43H552.992V41.56L554.512 41.12L554.192 41.54V36.1C554.192 35.4467 554.046 34.9667 553.752 34.66C553.472 34.3533 553.099 34.2 552.632 34.2C552.272 34.2 551.879 34.3 551.452 34.5C551.026 34.7 550.606 35 550.192 35.4L550.372 34.98V41.54L550.112 41.12L551.572 41.56V43H546.232ZM559.143 43V41.56L560.743 41.1L560.483 41.4V33.98L560.743 34.28H559.083V32.78L560.803 32.34L560.483 32.76V31.48C560.483 30.0533 560.863 29 561.623 28.32C562.383 27.6267 563.403 27.28 564.683 27.28C565.057 27.28 565.437 27.3133 565.823 27.38C566.223 27.4467 566.65 27.54 567.103 27.66L566.703 29.52C566.45 29.44 566.19 29.38 565.923 29.34C565.657 29.2867 565.403 29.26 565.163 29.26C564.617 29.26 564.163 29.4133 563.803 29.72C563.457 30.0133 563.283 30.52 563.283 31.24V32.76L562.923 32.42H565.783L565.723 34.28H563.003L563.283 33.98V41.4L563.023 41.1L564.883 41.56V43H559.143ZM571.729 32.08C573.302 32.08 574.529 32.5467 575.409 33.48C576.289 34.4133 576.729 35.74 576.729 37.46C576.729 38.66 576.515 39.6933 576.089 40.56C575.662 41.4133 575.049 42.0733 574.249 42.54C573.449 43.0067 572.489 43.24 571.369 43.24C569.795 43.24 568.575 42.7733 567.709 41.84C566.855 40.9067 566.429 39.58 566.429 37.86C566.429 36.66 566.635 35.6333 567.049 34.78C567.475 33.9133 568.082 33.2467 568.869 32.78C569.655 32.3133 570.609 32.08 571.729 32.08ZM571.589 34.08C570.829 34.08 570.262 34.38 569.889 34.98C569.515 35.5667 569.329 36.48 569.329 37.72C569.329 38.96 569.509 39.86 569.869 40.42C570.229 40.9667 570.775 41.24 571.509 41.24C572.042 41.24 572.475 41.1067 572.809 40.84C573.142 40.5733 573.395 40.1667 573.569 39.62C573.742 39.0733 573.829 38.4 573.829 37.6C573.829 36.3867 573.642 35.5 573.269 34.94C572.895 34.3667 572.335 34.08 571.589 34.08ZM577.932 43V41.56L579.552 41.1L579.272 41.52V33.84L579.592 34.32L577.932 33.82V32.38L581.452 32.22L581.812 34.12L581.452 34.04C582.052 33.4133 582.645 32.9333 583.232 32.6C583.818 32.2533 584.445 32.08 585.112 32.08C585.538 32.08 585.992 32.1467 586.472 32.28L586.292 35.98H584.672L584.372 33.82L584.632 34.36C584.552 34.3333 584.465 34.3133 584.372 34.3C584.292 34.2867 584.212 34.28 584.132 34.28C583.718 34.28 583.305 34.4067 582.892 34.66C582.492 34.9133 582.145 35.24 581.852 35.64L582.072 34.88V41.52L581.752 41.1L583.732 41.56V43H577.932ZM597.509 33.94L597.109 34.04C597.749 33.3867 598.429 32.9 599.149 32.58C599.869 32.2467 600.556 32.08 601.209 32.08C602.049 32.08 602.749 32.36 603.309 32.92C603.882 33.4667 604.169 34.3133 604.169 35.46V41.48L603.909 41.08L605.509 41.56V43H600.249V41.56L601.709 41.12L601.369 41.54V36.08C601.369 35.44 601.236 34.9667 600.969 34.66C600.716 34.3533 600.382 34.2 599.969 34.2C599.622 34.2 599.236 34.3067 598.809 34.52C598.382 34.7333 597.956 35.0467 597.529 35.46L597.729 34.84C597.756 34.9467 597.769 35.0467 597.769 35.14C597.769 35.22 597.769 35.2933 597.769 35.36V41.48L597.509 41.08L598.909 41.56V43H593.829V41.56L595.289 41.12L594.969 41.54V36.08C594.969 35.44 594.836 34.9667 594.569 34.66C594.302 34.3533 593.969 34.2 593.569 34.2C593.222 34.2 592.836 34.3 592.409 34.5C591.982 34.7 591.569 35 591.169 35.4L591.349 34.98V41.54L591.089 41.12L592.489 41.56V43H587.209V41.56L588.889 41.08L588.549 41.48V33.86L588.889 34.32L587.209 33.82V32.38L590.729 32.22L591.089 34.14L590.729 34C591.356 33.3733 592.022 32.9 592.729 32.58C593.449 32.2467 594.136 32.08 594.789 32.08C595.402 32.08 595.949 32.2333 596.429 32.54C596.909 32.8333 597.269 33.3 597.509 33.94ZM615.351 41.58L614.971 41.02L616.691 41.56V42.98L613.191 43.16L612.811 41.24L613.011 41.3C612.478 41.9533 611.898 42.44 611.271 42.76C610.644 43.08 609.998 43.24 609.331 43.24C608.478 43.24 607.771 42.9667 607.211 42.42C606.651 41.8733 606.371 41.0867 606.371 40.06C606.371 39.3 606.531 38.7 606.851 38.26C607.184 37.8067 607.664 37.48 608.291 37.28C608.918 37.08 609.678 36.98 610.571 36.98H612.751L612.551 37.2V35.88C612.551 35.2533 612.398 34.8067 612.091 34.54C611.798 34.2733 611.364 34.14 610.791 34.14C610.511 34.14 610.211 34.1667 609.891 34.22C609.571 34.2733 609.224 34.3533 608.851 34.46L609.131 34.16L608.871 35.78H607.131L606.971 32.86C607.878 32.5933 608.704 32.4 609.451 32.28C610.211 32.1467 610.904 32.08 611.531 32.08C612.771 32.08 613.718 32.3467 614.371 32.88C615.024 33.4133 615.351 34.24 615.351 35.36V41.58ZM609.191 39.78C609.191 40.2733 609.304 40.64 609.531 40.88C609.771 41.1067 610.071 41.22 610.431 41.22C610.764 41.22 611.131 41.12 611.531 40.92C611.931 40.7067 612.311 40.42 612.671 40.06L612.551 40.54V38.26L612.751 38.46H611.031C610.338 38.46 609.858 38.5667 609.591 38.78C609.324 38.9933 609.191 39.3267 609.191 39.78ZM621.402 43.24C620.482 43.24 619.782 42.9667 619.302 42.42C618.835 41.86 618.602 41.0333 618.602 39.94V33.82L618.962 34.18H617.042V32.68L619.002 32.22L618.602 32.7V29.98L621.422 29.48V32.7L621.122 32.32H624.162L624.122 34.18H621.122L621.422 33.82V39.56C621.422 40.1333 621.515 40.5467 621.702 40.8C621.889 41.0533 622.169 41.18 622.542 41.18C622.755 41.18 622.989 41.1467 623.242 41.08C623.509 41 623.795 40.9 624.102 40.78L624.622 42.32C623.502 42.9333 622.429 43.24 621.402 43.24ZM629.533 41.36L629.333 41.12L630.873 41.56V43H625.393V41.56L626.933 41.12L626.733 41.36V34.06L626.913 34.24L625.393 33.82V32.38L629.533 32.24V41.36ZM628.053 30.68C627.559 30.68 627.159 30.54 626.853 30.26C626.559 29.98 626.413 29.58 626.413 29.06C626.413 28.5 626.566 28.0867 626.873 27.82C627.193 27.54 627.593 27.4 628.073 27.4C628.539 27.4 628.926 27.54 629.233 27.82C629.539 28.0867 629.693 28.4933 629.693 29.04C629.693 29.5867 629.533 30 629.213 30.28C628.906 30.5467 628.519 30.68 628.053 30.68ZM637.1 32.08C638.673 32.08 639.9 32.5467 640.78 33.48C641.66 34.4133 642.1 35.74 642.1 37.46C642.1 38.66 641.886 39.6933 641.46 40.56C641.033 41.4133 640.42 42.0733 639.62 42.54C638.82 43.0067 637.86 43.24 636.74 43.24C635.166 43.24 633.946 42.7733 633.08 41.84C632.226 40.9067 631.8 39.58 631.8 37.86C631.8 36.66 632.006 35.6333 632.42 34.78C632.846 33.9133 633.453 33.2467 634.24 32.78C635.026 32.3133 635.98 32.08 637.1 32.08ZM636.96 34.08C636.2 34.08 635.633 34.38 635.26 34.98C634.886 35.5667 634.7 36.48 634.7 37.72C634.7 38.96 634.88 39.86 635.24 40.42C635.6 40.9667 636.146 41.24 636.88 41.24C637.413 41.24 637.846 41.1067 638.18 40.84C638.513 40.5733 638.766 40.1667 638.94 39.62C639.113 39.0733 639.2 38.4 639.2 37.6C639.2 36.3867 639.013 35.5 638.64 34.94C638.266 34.3667 637.706 34.08 636.96 34.08ZM643.303 43V41.56L644.983 41.08L644.643 41.48V33.86L644.983 34.32L643.303 33.82V32.38L646.823 32.22L647.183 34.14L646.823 34C647.463 33.3467 648.143 32.8667 648.863 32.56C649.583 32.24 650.269 32.08 650.923 32.08C651.829 32.08 652.583 32.3667 653.183 32.94C653.783 33.5 654.076 34.3533 654.063 35.5V41.48L653.803 41.08L655.403 41.56V43H650.063V41.56L651.583 41.12L651.263 41.54V36.1C651.263 35.4467 651.116 34.9667 650.823 34.66C650.543 34.3533 650.169 34.2 649.703 34.2C649.343 34.2 648.949 34.3 648.523 34.5C648.096 34.7 647.676 35 647.263 35.4L647.443 34.98V41.54L647.183 41.12L648.643 41.56V43H643.303Z" fill="#2E2836"/>
<path d="M821.591 19.24C820.324 19.24 819.224 18.9733 818.291 18.44C817.371 17.8933 816.657 17.0933 816.151 16.04C815.644 14.9867 815.391 13.6867 815.391 12.14C815.391 10.9 815.551 9.81333 815.871 8.88C816.191 7.94667 816.644 7.17333 817.231 6.56C817.817 5.93333 818.511 5.46667 819.311 5.16C820.124 4.84 821.024 4.68 822.011 4.68C822.984 4.68 823.857 4.83333 824.631 5.14C825.417 5.44667 826.084 5.89333 826.631 6.48C827.191 7.06667 827.624 7.8 827.931 8.68C828.237 9.54667 828.391 10.5533 828.391 11.7C828.391 13.26 828.104 14.6067 827.531 15.74C826.971 16.86 826.184 17.7267 825.171 18.34C824.157 18.94 822.964 19.24 821.591 19.24ZM821.811 17.04C822.477 17.04 823.071 16.88 823.591 16.56C824.111 16.2267 824.524 15.68 824.831 14.92C825.151 14.1467 825.311 13.1133 825.311 11.82C825.311 10.62 825.164 9.66 824.871 8.94C824.591 8.20667 824.197 7.68 823.691 7.36C823.184 7.04 822.584 6.88 821.891 6.88C821.224 6.88 820.631 7.04 820.111 7.36C819.591 7.68 819.184 8.21333 818.891 8.96C818.611 9.70667 818.471 10.7333 818.471 12.04C818.471 13.24 818.604 14.2067 818.871 14.94C819.137 15.66 819.517 16.1933 820.011 16.54C820.517 16.8733 821.117 17.04 821.811 17.04ZM829.525 19V17.56L831.145 17.1L830.865 17.52V9.84L831.185 10.32L829.525 9.82V8.38L833.045 8.22L833.405 10.12L833.045 10.04C833.645 9.41333 834.239 8.93333 834.825 8.6C835.412 8.25333 836.039 8.08 836.705 8.08C837.132 8.08 837.585 8.14667 838.065 8.28L837.885 11.98H836.265L835.965 9.82L836.225 10.36C836.145 10.3333 836.059 10.3133 835.965 10.3C835.885 10.2867 835.805 10.28 835.725 10.28C835.312 10.28 834.899 10.4067 834.485 10.66C834.085 10.9133 833.739 11.24 833.445 11.64L833.665 10.88V17.52L833.345 17.1L835.325 17.56V19H829.525ZM842.608 19.24C841.834 19.24 841.148 19.04 840.548 18.64C839.961 18.2267 839.494 17.62 839.148 16.82C838.814 16.02 838.648 15.0467 838.648 13.9C838.648 11.9267 839.148 10.4667 840.148 9.52C841.148 8.56 842.554 8.08 844.368 8.08C844.661 8.08 844.954 8.09333 845.248 8.12C845.541 8.14667 845.848 8.19333 846.168 8.26L845.648 8.58V5.28L845.848 5.56L844.208 5.02V3.6L848.448 3.44V17.44L848.108 17.04L849.788 17.56V18.98L846.268 19.14L845.908 17.42L846.188 17.52C845.601 18.0933 845.014 18.5267 844.428 18.82C843.854 19.1 843.248 19.24 842.608 19.24ZM843.688 17.18C844.034 17.18 844.401 17.0867 844.788 16.9C845.174 16.7 845.574 16.4133 845.988 16.04L845.648 16.88V9.7L845.988 10.34C845.361 10.1667 844.794 10.08 844.288 10.08C843.341 10.08 842.648 10.4 842.208 11.04C841.781 11.6667 841.568 12.5333 841.568 13.64C841.568 14.36 841.654 14.9867 841.828 15.52C842.001 16.0533 842.241 16.4667 842.548 16.76C842.868 17.04 843.248 17.18 843.688 17.18ZM855.578 19.24C854.605 19.24 853.751 19.04 853.018 18.64C852.285 18.2267 851.711 17.62 851.298 16.82C850.898 16.0067 850.698 15.02 850.698 13.86C850.698 12.66 850.911 11.6333 851.338 10.78C851.778 9.91333 852.391 9.24667 853.178 8.78C853.965 8.31333 854.891 8.08 855.958 8.08C856.998 8.08 857.845 8.28667 858.498 8.7C859.151 9.11333 859.631 9.68 859.938 10.4C860.245 11.1067 860.398 11.9067 860.398 12.8C860.398 13.0267 860.385 13.2533 860.358 13.48C860.345 13.7067 860.318 13.9467 860.278 14.2H852.958V12.54H857.878L857.518 12.8C857.531 12.2667 857.478 11.8 857.358 11.4C857.251 10.9867 857.065 10.6667 856.798 10.44C856.545 10.2133 856.191 10.1 855.738 10.1C855.218 10.1 854.798 10.2533 854.478 10.56C854.158 10.8533 853.925 11.2533 853.778 11.76C853.645 12.2667 853.578 12.8333 853.578 13.46C853.578 14.1667 853.665 14.8 853.838 15.36C854.011 15.92 854.291 16.36 854.678 16.68C855.078 17 855.598 17.16 856.238 17.16C856.691 17.16 857.178 17.08 857.698 16.92C858.231 16.7467 858.785 16.4933 859.358 16.16L860.298 17.66C859.525 18.1933 858.731 18.5933 857.918 18.86C857.118 19.1133 856.338 19.24 855.578 19.24ZM861.635 19V17.56L863.255 17.1L862.975 17.52V9.84L863.295 10.32L861.635 9.82V8.38L865.155 8.22L865.515 10.12L865.155 10.04C865.755 9.41333 866.348 8.93333 866.935 8.6C867.521 8.25333 868.148 8.08 868.815 8.08C869.241 8.08 869.695 8.14667 870.175 8.28L869.995 11.98H868.375L868.075 9.82L868.335 10.36C868.255 10.3333 868.168 10.3133 868.075 10.3C867.995 10.2867 867.915 10.28 867.835 10.28C867.421 10.28 867.008 10.4067 866.595 10.66C866.195 10.9133 865.848 11.24 865.555 11.64L865.775 10.88V17.52L865.455 17.1L867.435 17.56V19H861.635ZM784.945 43.24C783.852 43.24 782.852 42.9733 781.945 42.44C781.038 41.8933 780.312 41.0867 779.765 40.02C779.218 38.94 778.945 37.6133 778.945 36.04C778.945 34.4933 779.212 33.1733 779.745 32.08C780.278 30.9867 781.032 30.1467 782.005 29.56C782.978 28.9733 784.118 28.68 785.425 28.68C786.118 28.68 786.832 28.7667 787.565 28.94C788.298 29.1133 789.085 29.3733 789.925 29.72L789.745 33.32H788.045L787.565 30.98L788.045 31.44C787.578 31.2533 787.132 31.1133 786.705 31.02C786.278 30.9267 785.885 30.88 785.525 30.88C784.765 30.88 784.125 31.0733 783.605 31.46C783.085 31.8333 782.692 32.38 782.425 33.1C782.158 33.82 782.025 34.68 782.025 35.68C782.025 36.8533 782.178 37.8333 782.485 38.62C782.805 39.3933 783.238 39.9733 783.785 40.36C784.345 40.7333 784.972 40.92 785.665 40.92C786.185 40.92 786.732 40.8133 787.305 40.6C787.892 40.3733 788.478 40.0333 789.065 39.58L790.125 41.24C789.298 41.9067 788.438 42.4067 787.545 42.74C786.665 43.0733 785.798 43.24 784.945 43.24ZM796.252 32.08C797.825 32.08 799.052 32.5467 799.932 33.48C800.812 34.4133 801.252 35.74 801.252 37.46C801.252 38.66 801.039 39.6933 800.612 40.56C800.185 41.4133 799.572 42.0733 798.772 42.54C797.972 43.0067 797.012 43.24 795.892 43.24C794.319 43.24 793.099 42.7733 792.232 41.84C791.379 40.9067 790.952 39.58 790.952 37.86C790.952 36.66 791.159 35.6333 791.572 34.78C791.999 33.9133 792.605 33.2467 793.392 32.78C794.179 32.3133 795.132 32.08 796.252 32.08ZM796.112 34.08C795.352 34.08 794.785 34.38 794.412 34.98C794.039 35.5667 793.852 36.48 793.852 37.72C793.852 38.96 794.032 39.86 794.392 40.42C794.752 40.9667 795.299 41.24 796.032 41.24C796.565 41.24 796.999 41.1067 797.332 40.84C797.665 40.5733 797.919 40.1667 798.092 39.62C798.265 39.0733 798.352 38.4 798.352 37.6C798.352 36.3867 798.165 35.5 797.792 34.94C797.419 34.3667 796.859 34.08 796.112 34.08ZM802.455 43V41.56L804.135 41.08L803.795 41.48V33.86L804.135 34.32L802.455 33.82V32.38L805.975 32.22L806.335 34.14L805.975 34C806.615 33.3467 807.295 32.8667 808.015 32.56C808.735 32.24 809.422 32.08 810.075 32.08C810.982 32.08 811.735 32.3667 812.335 32.94C812.935 33.5 813.228 34.3533 813.215 35.5V41.48L812.955 41.08L814.555 41.56V43H809.215V41.56L810.735 41.12L810.415 41.54V36.1C810.415 35.4467 810.268 34.9667 809.975 34.66C809.695 34.3533 809.322 34.2 808.855 34.2C808.495 34.2 808.102 34.3 807.675 34.5C807.248 34.7 806.828 35 806.415 35.4L806.595 34.98V41.54L806.335 41.12L807.795 41.56V43H802.455ZM815.366 43V41.56L816.966 41.1L816.706 41.4V33.98L816.966 34.28H815.306V32.78L817.026 32.34L816.706 32.76V31.48C816.706 30.5333 816.873 29.7533 817.206 29.14C817.553 28.5133 818.033 28.0467 818.646 27.74C819.259 27.4333 819.959 27.28 820.746 27.28C821.026 27.28 821.326 27.3 821.646 27.34C821.966 27.3667 822.286 27.42 822.606 27.5L822.226 29.44C822.039 29.3867 821.853 29.3467 821.666 29.32C821.493 29.2933 821.319 29.28 821.146 29.28C820.613 29.28 820.206 29.4333 819.926 29.74C819.646 30.0467 819.506 30.5467 819.506 31.24V32.76L819.146 32.42H822.066L822.006 34.28H819.226L819.506 33.98V41.4L819.246 41.1L821.106 41.56V43H815.366ZM826.986 41.36L826.786 41.12L828.326 41.56V43H822.846V41.56L824.386 41.12L824.186 41.36V34.06L824.366 34.24L822.846 33.82V32.38L826.986 32.24V41.36ZM825.506 30.68C825.012 30.68 824.612 30.54 824.306 30.26C824.012 29.98 823.866 29.58 823.866 29.06C823.866 28.5 824.019 28.0867 824.326 27.82C824.646 27.54 825.046 27.4 825.526 27.4C825.992 27.4 826.379 27.54 826.686 27.82C826.992 28.0867 827.146 28.4933 827.146 29.04C827.146 29.5867 826.986 30 826.666 30.28C826.359 30.5467 825.972 30.68 825.506 30.68ZM829.213 43V41.56L830.833 41.1L830.553 41.52V33.84L830.873 34.32L829.213 33.82V32.38L832.733 32.22L833.093 34.12L832.733 34.04C833.333 33.4133 833.926 32.9333 834.513 32.6C835.099 32.2533 835.726 32.08 836.393 32.08C836.819 32.08 837.273 32.1467 837.753 32.28L837.573 35.98H835.953L835.653 33.82L835.913 34.36C835.833 34.3333 835.746 34.3133 835.653 34.3C835.573 34.2867 835.493 34.28 835.413 34.28C834.999 34.28 834.586 34.4067 834.173 34.66C833.773 34.9133 833.426 35.24 833.133 35.64L833.353 34.88V41.52L833.033 41.1L835.013 41.56V43H829.213ZM848.79 33.94L848.39 34.04C849.03 33.3867 849.71 32.9 850.43 32.58C851.15 32.2467 851.837 32.08 852.49 32.08C853.33 32.08 854.03 32.36 854.59 32.92C855.163 33.4667 855.45 34.3133 855.45 35.46V41.48L855.19 41.08L856.79 41.56V43H851.53V41.56L852.99 41.12L852.65 41.54V36.08C852.65 35.44 852.517 34.9667 852.25 34.66C851.997 34.3533 851.663 34.2 851.25 34.2C850.903 34.2 850.517 34.3067 850.09 34.52C849.663 34.7333 849.237 35.0467 848.81 35.46L849.01 34.84C849.037 34.9467 849.05 35.0467 849.05 35.14C849.05 35.22 849.05 35.2933 849.05 35.36V41.48L848.79 41.08L850.19 41.56V43H845.11V41.56L846.57 41.12L846.25 41.54V36.08C846.25 35.44 846.117 34.9667 845.85 34.66C845.583 34.3533 845.25 34.2 844.85 34.2C844.503 34.2 844.117 34.3 843.69 34.5C843.263 34.7 842.85 35 842.45 35.4L842.63 34.98V41.54L842.37 41.12L843.77 41.56V43H838.49V41.56L840.17 41.08L839.83 41.48V33.86L840.17 34.32L838.49 33.82V32.38L842.01 32.22L842.37 34.14L842.01 34C842.637 33.3733 843.303 32.9 844.01 32.58C844.73 32.2467 845.417 32.08 846.07 32.08C846.683 32.08 847.23 32.2333 847.71 32.54C848.19 32.8333 848.55 33.3 848.79 33.94ZM866.632 41.58L866.252 41.02L867.972 41.56V42.98L864.472 43.16L864.092 41.24L864.292 41.3C863.759 41.9533 863.179 42.44 862.552 42.76C861.926 43.08 861.279 43.24 860.612 43.24C859.759 43.24 859.052 42.9667 858.492 42.42C857.932 41.8733 857.652 41.0867 857.652 40.06C857.652 39.3 857.812 38.7 858.132 38.26C858.466 37.8067 858.946 37.48 859.572 37.28C860.199 37.08 860.959 36.98 861.852 36.98H864.032L863.832 37.2V35.88C863.832 35.2533 863.679 34.8067 863.372 34.54C863.079 34.2733 862.646 34.14 862.072 34.14C861.792 34.14 861.492 34.1667 861.172 34.22C860.852 34.2733 860.506 34.3533 860.132 34.46L860.412 34.16L860.152 35.78H858.412L858.252 32.86C859.159 32.5933 859.986 32.4 860.732 32.28C861.492 32.1467 862.186 32.08 862.812 32.08C864.052 32.08 864.999 32.3467 865.652 32.88C866.306 33.4133 866.632 34.24 866.632 35.36V41.58ZM860.472 39.78C860.472 40.2733 860.586 40.64 860.812 40.88C861.052 41.1067 861.352 41.22 861.712 41.22C862.046 41.22 862.412 41.12 862.812 40.92C863.212 40.7067 863.592 40.42 863.952 40.06L863.832 40.54V38.26L864.032 38.46H862.312C861.619 38.46 861.139 38.5667 860.872 38.78C860.606 38.9933 860.472 39.3267 860.472 39.78ZM872.683 43.24C871.763 43.24 871.063 42.9667 870.583 42.42C870.116 41.86 869.883 41.0333 869.883 39.94V33.82L870.243 34.18H868.323V32.68L870.283 32.22L869.883 32.7V29.98L872.703 29.48V32.7L872.403 32.32H875.443L875.403 34.18H872.403L872.703 33.82V39.56C872.703 40.1333 872.796 40.5467 872.983 40.8C873.17 41.0533 873.45 41.18 873.823 41.18C874.036 41.18 874.27 41.1467 874.523 41.08C874.79 41 875.076 40.9 875.383 40.78L875.903 42.32C874.783 42.9333 873.71 43.24 872.683 43.24ZM880.814 41.36L880.614 41.12L882.154 41.56V43H876.674V41.56L878.214 41.12L878.014 41.36V34.06L878.194 34.24L876.674 33.82V32.38L880.814 32.24V41.36ZM879.334 30.68C878.84 30.68 878.44 30.54 878.134 30.26C877.84 29.98 877.694 29.58 877.694 29.06C877.694 28.5 877.847 28.0867 878.154 27.82C878.474 27.54 878.874 27.4 879.354 27.4C879.82 27.4 880.207 27.54 880.514 27.82C880.82 28.0867 880.974 28.4933 880.974 29.04C880.974 29.5867 880.814 30 880.494 30.28C880.187 30.5467 879.8 30.68 879.334 30.68ZM888.381 32.08C889.954 32.08 891.181 32.5467 892.061 33.48C892.941 34.4133 893.381 35.74 893.381 37.46C893.381 38.66 893.168 39.6933 892.741 40.56C892.314 41.4133 891.701 42.0733 890.901 42.54C890.101 43.0067 889.141 43.24 888.021 43.24C886.448 43.24 885.228 42.7733 884.361 41.84C883.508 40.9067 883.081 39.58 883.081 37.86C883.081 36.66 883.288 35.6333 883.701 34.78C884.128 33.9133 884.734 33.2467 885.521 32.78C886.308 32.3133 887.261 32.08 888.381 32.08ZM888.241 34.08C887.481 34.08 886.914 34.38 886.541 34.98C886.168 35.5667 885.981 36.48 885.981 37.72C885.981 38.96 886.161 39.86 886.521 40.42C886.881 40.9667 887.428 41.24 888.161 41.24C888.694 41.24 889.128 41.1067 889.461 40.84C889.794 40.5733 890.048 40.1667 890.221 39.62C890.394 39.0733 890.481 38.4 890.481 37.6C890.481 36.3867 890.294 35.5 889.921 34.94C889.548 34.3667 888.988 34.08 888.241 34.08ZM894.584 43V41.56L896.264 41.08L895.924 41.48V33.86L896.264 34.32L894.584 33.82V32.38L898.104 32.22L898.464 34.14L898.104 34C898.744 33.3467 899.424 32.8667 900.144 32.56C900.864 32.24 901.551 32.08 902.204 32.08C903.111 32.08 903.864 32.3667 904.464 32.94C905.064 33.5 905.357 34.3533 905.344 35.5V41.48L905.084 41.08L906.684 41.56V43H901.344V41.56L902.864 41.12L902.544 41.54V36.1C902.544 35.4467 902.397 34.9667 902.104 34.66C901.824 34.3533 901.451 34.2 900.984 34.2C900.624 34.2 900.231 34.3 899.804 34.5C899.377 34.7 898.957 35 898.544 35.4L898.724 34.98V41.54L898.464 41.12L899.924 41.56V43H894.584Z" fill="#2E2836"/>
</svg>
